<?xml version="1.0" standalone="no"?>
<!DOCTYPE svg PUBLIC "-//W3C//DTD SVG 1.1//EN" "http://www.w3.org/Graphics/SVG/1.1/DTD/svg11.dtd" >
<svg xmlns="http://www.w3.org/2000/svg">
<metadata></metadata>
<defs>
<font id="anger_managementregular" horiz-adv-x="1008" >
<font-face units-per-em="2048" ascent="1638" descent="-410" />
<missing-glyph horiz-adv-x="508" />
<glyph unicode="&#xd;" horiz-adv-x="508" />
<glyph unicode=" "  horiz-adv-x="508" />
<glyph unicode="&#x09;" horiz-adv-x="508" />
<glyph unicode="&#xa0;" horiz-adv-x="508" />
<glyph unicode="!" horiz-adv-x="402" d="M-3 418l3 997l215 -32l-3 -965h-215zM212 219l-1 -233l-215 8l1 225h215z" />
<glyph unicode="&#x22;" horiz-adv-x="690" d="M211 1402l4 -231l-116 -196l-94 225l-5 216zM500 1343l4 -231l-116 -196l-94 225l-5 216z" />
<glyph unicode="#" horiz-adv-x="1000" d="M740 881l3 -335l173 3l-4 -240l-168 3l4 -487l-216 158l-4 332l-180 3l-1 -332l-215 8l2 327l-131 2l13 213l119 2l2 353l-148 2l13 213l136 2l2 429l211 -154l-1 -272l169 2l-3 293h220l2 -289l164 2l-4 -240zM526 543l-4 342l-172 2l-1 -346z" />
<glyph unicode="$" horiz-adv-x="1012" d="M514 795l284 1l10 -802l-302 -6l-2 -144l-226 5l2 135l-265 -5l-3 179l271 28l5 394l-69 -1l-214 -2l-13 802l308 12l1 85l221 55l-1 -132l390 15l-147 -220l-246 -5zM297 1185l-85 -2l3 -389h76zM508 199l78 5l-1 381l-73 -1z" />
<glyph unicode="%" horiz-adv-x="1012" d="M-99 -179l874 1769l217 -18l-5 -7l5 1l-855 -1757l-231 8zM328 1385v-302l-308 -9l-9 334zM902 300v-302l-308 -9l-9 334z" />
<glyph unicode="&#x26;" horiz-adv-x="1250" d="M867 665l-8 -682l-800 8l-39 941l234 -16l-254 462l867 24l-1 -194l-512 -28l125 -270l163 -2v42l230 162l-2 -207l208 -3l-32 -249zM243 694l20 -500l381 1l-1 486z" />
<glyph unicode="'" horiz-adv-x="402" d="M207 1402l4 -231l-116 -196l-94 225l-5 216z" />
<glyph unicode="(" horiz-adv-x="690" d="M513 -180l-516 6l20 1761l498 -4l-127 -204l-171 -7l-4 -1346l172 1z" />
<glyph unicode=")" horiz-adv-x="690" d="M-1 1587l516 -6l-20 -1761l-498 4l127 204l171 7l4 1346l-172 -1z" />
<glyph unicode="*" horiz-adv-x="902" d="M252 1232l1 141l215 31l-2 -187l152 86l111 -184l-145 -82l133 -78l-104 -188l-150 88l-1 -168l-215 -4l1 160l-116 -66l-134 171l157 89l-133 78l80 201z" />
<glyph unicode="+" horiz-adv-x="902" d="M253 591l-246 2l-4 215l252 -2l2 219l215 31l-2 -252l219 -2l31 -215l-252 2l-2 -246l-215 -4z" />
<glyph unicode="," horiz-adv-x="402" d="M207 217l4 -231l-206 -187l-9 432z" />
<glyph unicode="-" horiz-adv-x="902" d="M3 808l686 -6l31 -215l-713 6z" />
<glyph unicode="." horiz-adv-x="402" d="M207 217l4 -231l-215 8v237z" />
<glyph unicode="/" horiz-adv-x="1012" d="M-99 -179l874 1769l217 -18l-5 -7l5 1l-855 -1757l-231 8z" />
<glyph unicode="0" d="M208 1187l-4 -989l388 -4l8 1000zM804 1398l-12 -1411l-804 11l20 1404z" />
<glyph unicode="1" horiz-adv-x="402" d="M215 1383l-4 -1397l-215 8l-5 1208z" />
<glyph unicode="2" horiz-adv-x="1012" d="M798 597l-583 2l-3 -389l552 -11l147 -220l-919 35l13 802l214 -2l366 -6l1 381l-355 21l-219 25l3 179l793 -15z" />
<glyph unicode="3" horiz-adv-x="1012" d="M1 1208l-1 194l867 -24l-254 -462l234 16l-39 -941l-800 -8l-4 568l217 -220l2 -136l381 -1l20 500l-346 -20l235 506z" />
<glyph unicode="4" horiz-adv-x="1000" d="M782 601l6 -776l-216 158l-8 615l-562 -13l2 952l211 -154l-4 -578l349 8l-4 593h220l4 -573l122 6l5 -235z" />
<glyph unicode="5" horiz-adv-x="1012" d="M808 -6l-793 -15l-3 179l219 25l355 21l-1 381l-366 -6l-214 -2l-13 802l919 35l-147 -220l-552 -11l3 -389l583 2z" />
<glyph unicode="6" horiz-adv-x="1012" d="M-8 1379l919 35l-147 -220l-552 -11l3 -389l583 2l10 -802l-793 -15zM218 182l13 1l355 21l-1 381l-373 -6z" />
<glyph unicode="7" horiz-adv-x="1012" d="M-13 -7l562 1190l-554 1l-3 195l919 35l-5 -7l5 1l-661 -1400l-258 -19z" />
<glyph unicode="8" horiz-adv-x="1012" d="M595 1211l-13 -1l-355 -21l1 -381l373 6zM5 1399l793 15l23 -1400l-788 -17zM224 205l377 5l-3 389l-374 2v-396z" />
<glyph unicode="9" horiz-adv-x="1012" d="M821 14l-919 -35l147 220l552 11l-3 389l-583 -2l-10 802l793 15zM595 1211l-13 -1l-355 -21l1 -381l373 6z" />
<glyph unicode=":" horiz-adv-x="391" d="M-10 1020l220 -2l31 -215l-247 2zM-6 613l220 -2l31 -215l-247 2z" />
<glyph unicode=";" horiz-adv-x="391" d="M-10 1020l220 -2l31 -215l-247 2zM-6 613l220 -2l31 -215l-247 -170z" />
<glyph unicode="&#x3c;" d="M833 932l-459 -251l480 -211l9 -238l-881 436l846 489z" />
<glyph unicode="=" horiz-adv-x="902" d="M-10 1020l686 -6l31 -215l-713 6zM-6 613l686 -6l31 -215l-713 6z" />
<glyph unicode="&#x3e;" d="M12 457l458 251l-480 211l-8 238l881 -436l-846 -489z" />
<glyph unicode="?" horiz-adv-x="1012" d="M115 407l7 409l463 -8l1 381l-574 46l3 179l793 -15l-10 -802l-466 2l-1 -192h-216zM329 212v-2l7 -218l-227 22l3 198h217z" />
<glyph unicode="@" horiz-adv-x="996" d="M909 247l-892 -16l-10 960l810 19l5 -610l-439 27l112 200l131 -11l-4 179l-412 -8l11 -548l534 11z" />
<glyph unicode="A" d="M205 117l-36 -130l-234 11l457 1531l477 -1535l-238 -4l-36 124zM540 307l-144 499l-135 -486z" />
<glyph unicode="B" horiz-adv-x="1012" d="M867 1378l-286 -561l234 16l-7 -842l-800 -8l-8 1419zM214 1190l9 -995l381 -1l-12 401l-346 -20l267 605z" />
<glyph unicode="C" d="M606 478l199 -10l-13 -481l-804 11l20 1404l796 -4l-2 -383l-198 -190l-4 369l-392 -7l-4 -989l388 -4z" />
<glyph unicode="D" d="M208 1187l-4 -989l320 5l108 991zM858 1398l-134 -1402l-736 2l20 1404z" />
<glyph unicode="E" horiz-adv-x="1012" d="M764 1194l-552 -11l3 -389l474 8l31 -215l-501 -8l12 -396l585 34l-8 -223l-793 -15l-23 1400l919 35z" />
<glyph unicode="F" horiz-adv-x="1012" d="M781 1183l-552 8l-10 -389l474 -8l23 -216l-501 9l-9 -582l-216 -10l26 1400l920 2z" />
<glyph unicode="G" horiz-adv-x="996" d="M742 1191l-534 11l-20 -992l412 -8l8 396l-131 -11l-112 200l439 27v-970l-215 -73l7 216l-611 19l19 1404l892 -16z" />
<glyph unicode="H" horiz-adv-x="1000" d="M215 1383l-4 -578l377 8l-4 593h220l12 -1581l-216 158l-8 615l-377 -8l-4 -604l-215 8l8 1543z" />
<glyph unicode="I" horiz-adv-x="402" d="M215 1383l-4 -1397l-215 8l4 1421z" />
<glyph unicode="J" d="M805 1391l-20 -1404l-796 4l2 383l198 190l4 -369l392 7l4 1197z" />
<glyph unicode="K" horiz-adv-x="1012" d="M464 791l407 -830l-237 -19l-315 684l-101 -142l-6 -505l-212 4l8 1419l224 1l-8 -549l421 541l239 -1z" />
<glyph unicode="L" horiz-adv-x="996" d="M192 1414l16 -1208h538l181 -208l-915 4l-20 1396z" />
<glyph unicode="M" horiz-adv-x="1208" d="M12 1514l508 -873l508 885l-20 -1732l-208 196l5 708l-270 -467l-281 473l-28 -717l-226 23z" />
<glyph unicode="N" horiz-adv-x="996" d="M8 -40v1639l592 -1005l-8 824l193 42l23 -1658l-600 985l-12 -766z" />
<glyph unicode="O" d="M208 1187l-4 -989l388 -4l8 1000zM804 1398l-12 -1411l-804 11l20 1404z" />
<glyph unicode="P" horiz-adv-x="1012" d="M223 809l369 -19l-6 383l-358 13zM220 570l-8 -591l-212 4l8 1419l786 -17l21 -833z" />
<glyph unicode="Q" d="M627 -11l-639 9l20 1404l796 -4l-10 -1231l135 -165l-199 -190zM508 195l-85 146l117 136l54 -66l6 783l-392 -7l-4 -989z" />
<glyph unicode="R" horiz-adv-x="1012" d="M0 -17l8 1419l800 -8l7 -842l-234 16l377 -828l-246 12l-466 1058l346 -20l12 401l-381 -1l-11 -1211z" />
<glyph unicode="S" horiz-adv-x="1012" d="M808 -6l-793 -15l-3 179l219 25l355 21l-1 381l-366 -6l-214 -2l-13 802l919 35l-147 -220l-552 -11l3 -389l583 2z" />
<glyph unicode="T" horiz-adv-x="1000" d="M0 1406l812 -8l-12 -200l-296 -4l4 -1338l-219 146l-8 1208h-273z" />
<glyph unicode="U" d="M603 1394l201 -3l-20 -1404l-796 4l12 1411l210 -3l-18 -1204l392 7z" />
<glyph unicode="V" d="M162 1425l227 -819l235 816l238 -4l-477 -1535l-448 1549z" />
<glyph unicode="W" horiz-adv-x="1454" d="M620 640l-235 -757l-457 1531l234 11l227 -819l118 411l117 405l113 -407l113 -409l235 816l238 -4l-477 -1535z" />
<glyph unicode="X" d="M255 746l-313 681l225 -7l228 -498l234 495l238 -4l-324 -675l306 -742l-225 7l-214 553l-248 -550l-238 4z" />
<glyph unicode="Y" d="M273 546l-336 886l225 -7l218 -571l244 568l238 -4l-386 -893l-22 -545h-194z" />
<glyph unicode="Z" horiz-adv-x="1012" d="M-13 -7l562 1190l-554 1l-3 195l919 35l-5 -7l5 1l-579 -1192l484 1l-8 -223l-816 -5z" />
<glyph unicode="[" horiz-adv-x="690" d="M513 -180l-516 6l20 1761l498 -4l-127 -204l-171 -7l-4 -1346l172 1z" />
<glyph unicode="\" horiz-adv-x="1012" d="M-94 1582l231 8l855 -1757l-5 1l5 -7l-217 -18l-874 1769z" />
<glyph unicode="]" horiz-adv-x="690" d="M-1 1587l516 -6l-20 -1761l-498 4l127 204l171 7l4 1346l-172 -1z" />
<glyph unicode="^" horiz-adv-x="843" d="M348 1205l-133 -444l-198 -10l197 683l264 -9l200 -643l-226 -11z" />
<glyph unicode="_" horiz-adv-x="1012" d="M1 197l815 20l-8 -223l-793 -15z" />
<glyph unicode="`" horiz-adv-x="402" d="M207 1402l58 -322l-152 -28l-117 364z" />
<glyph unicode="a" d="M205 117l-36 -130l-234 11l457 1531l477 -1535l-238 -4l-36 124zM540 307l-144 499l-135 -486z" />
<glyph unicode="b" horiz-adv-x="1012" d="M867 1378l-286 -561l234 16l-7 -842l-800 -8l-8 1419zM214 1190l9 -995l381 -1l-12 401l-346 -20l267 605z" />
<glyph unicode="c" d="M606 478l199 -10l-13 -481l-804 11l20 1404l796 -4l-2 -383l-198 -190l-4 369l-392 -7l-4 -989l388 -4z" />
<glyph unicode="d" d="M208 1187l-4 -989l320 5l108 991zM858 1398l-134 -1402l-736 2l20 1404z" />
<glyph unicode="e" horiz-adv-x="1012" d="M764 1194l-552 -11l3 -389l474 8l31 -215l-501 -8l12 -396l585 34l-8 -223l-793 -15l-23 1400l919 35z" />
<glyph unicode="f" horiz-adv-x="1012" d="M781 1183l-552 8l-10 -389l474 -8l23 -216l-501 9l-9 -582l-216 -10l26 1400l920 2z" />
<glyph unicode="g" horiz-adv-x="996" d="M742 1191l-534 11l-20 -992l412 -8l8 396l-131 -11l-112 200l439 27v-970l-215 -73l7 216l-611 19l19 1404l892 -16z" />
<glyph unicode="h" horiz-adv-x="1000" d="M215 1383l-4 -578l377 8l-4 593h220l12 -1581l-216 158l-8 615l-377 -8l-4 -604l-215 8l8 1543z" />
<glyph unicode="i" horiz-adv-x="402" d="M215 1383l-4 -1397l-215 8l4 1421z" />
<glyph unicode="j" d="M805 1391l-20 -1404l-796 4l2 383l198 190l4 -369l392 7l4 1197z" />
<glyph unicode="k" horiz-adv-x="1012" d="M464 791l407 -830l-237 -19l-315 684l-101 -142l-6 -505l-212 4l8 1419l224 1l-8 -549l421 541l239 -1z" />
<glyph unicode="l" horiz-adv-x="996" d="M192 1414l16 -1208h538l181 -208l-915 4l-20 1396z" />
<glyph unicode="m" horiz-adv-x="1208" d="M12 1514l508 -873l508 885l-20 -1732l-208 196l5 708l-270 -467l-281 473l-28 -717l-226 23z" />
<glyph unicode="n" horiz-adv-x="996" d="M8 -40v1639l592 -1005l-8 824l193 42l23 -1658l-600 985l-12 -766z" />
<glyph unicode="o" d="M208 1187l-4 -989l388 -4l8 1000zM804 1398l-12 -1411l-804 11l20 1404z" />
<glyph unicode="p" horiz-adv-x="1012" d="M223 809l369 -19l-6 383l-358 13zM220 570l-8 -591l-212 4l8 1419l786 -17l21 -833z" />
<glyph unicode="q" d="M627 -11l-639 9l20 1404l796 -4l-10 -1231l135 -165l-199 -190zM508 195l-85 146l117 136l54 -66l6 783l-392 -7l-4 -989z" />
<glyph unicode="r" horiz-adv-x="1012" d="M0 -17l8 1419l800 -8l7 -842l-234 16l273 -588l-246 12l-362 818l346 -20l12 401l-381 -1l-11 -1211z" />
<glyph unicode="s" horiz-adv-x="1012" d="M808 -6l-793 -15l-3 179l219 25l355 21l-1 381l-366 -6l-214 -2l-13 802l919 35l-147 -220l-552 -11l3 -389l583 2z" />
<glyph unicode="t" horiz-adv-x="1000" d="M0 1406l812 -8l-12 -200l-296 -4l4 -1338l-219 146l-8 1208h-273z" />
<glyph unicode="u" d="M603 1394l201 -3l-20 -1404l-796 4l12 1411l210 -3l-18 -1204l392 7z" />
<glyph unicode="v" d="M162 1425l227 -819l235 816l238 -4l-477 -1535l-448 1549z" />
<glyph unicode="w" horiz-adv-x="1454" d="M620 640l-235 -757l-457 1531l234 11l227 -819l118 411l117 405l113 -407l113 -409l235 816l238 -4l-477 -1535z" />
<glyph unicode="x" d="M255 746l-313 681l225 -7l228 -498l234 495l238 -4l-324 -675l306 -742l-225 7l-214 553l-248 -550l-238 4z" />
<glyph unicode="y" d="M273 546l-336 886l225 -7l218 -571l244 568l238 -4l-386 -893l-22 -545h-194z" />
<glyph unicode="z" horiz-adv-x="1012" d="M-13 -7l562 1190l-554 1l-3 195l919 35l-5 -7l5 1l-579 -1192l484 1l-8 -223l-816 -5z" />
<glyph unicode="{" horiz-adv-x="902" d="M207 816l9 771l498 -4l-127 -204l-171 -7l-4 -1346l172 1l128 -207l-516 6l9 768l-212 -8l9 221z" />
<glyph unicode="|" horiz-adv-x="402" d="M220 1572l-9 -1767l-215 8l9 1791z" />
<glyph unicode="}" horiz-adv-x="902" d="M500 591l-9 -771l-498 4l127 204l171 7l4 1346l-172 -1l-128 207l516 -6l-9 -768l212 8l-9 -221z" />
<glyph unicode="~" horiz-adv-x="902" d="M263 669l-261 -72l-4 215l256 77l201 -56l243 73l31 -215l-282 -78z" />
<glyph unicode="&#xa1;" horiz-adv-x="402" d="M214 592l-3 -997l-215 32l3 965h215zM-1 791l1 233l215 -8l-1 -225h-215z" />
<glyph unicode="&#xa2;" d="M354 -12l-87 -179l-231 8l-5 4l155 314l-18 1256l643 9l94 190l217 -18l-5 -7l5 1l-146 -301l9 -344l-181 -9l-346 -711l322 -6l4 369l198 -190l2 -383zM387 541l323 653l-326 -3z" />
<glyph unicode="&#xa3;" horiz-adv-x="1012" d="M7 -16l-14 208l167 12l-6 389l-156 -8l-14 208l167 11l-10 584l770 26l-147 -220l-403 -2l3 -389l325 -1l31 -215l-352 1l12 -396l436 25l-8 -223z" />
<glyph unicode="&#xa5;" d="M255 593l-318 839l225 -7l218 -571l244 568l238 -4l-355 -822l300 3l-13 -208l-323 2l-4 -83l327 4l-13 -208l-322 2l-5 -128h-194l3 129l-269 2v194l274 3l2 86l-263 2v194z" />
<glyph unicode="&#xa7;" horiz-adv-x="1012" d="M15 377v3h-4l-19 999l919 35l-147 -220l-552 -11l3 -181l384 1l195 4v-3h4l19 -999l-919 -35l147 220l552 11l-3 181zM224 596l362 6l-1 186l-362 -6z" />
<glyph unicode="&#xa8;" horiz-adv-x="703" d="M203 1411l4 -231l-215 8v237zM510 1402l4 -231l-215 8v237z" />
<glyph unicode="&#xb4;" horiz-adv-x="402" d="M265 1416l-117 -364l-152 28l58 322z" />
<glyph unicode="&#xb5;" d="M-12 -9l12 1411l210 -3l-18 -1204l392 7l19 1192l201 -3l-20 -1404l-575 3l-8 -322l-217 -5z" />
<glyph unicode="&#xb8;" horiz-adv-x="563" d="M346 156l36 -425l-361 -27l-23 208l136 13l-14 199z" />
<glyph unicode="&#xbf;" horiz-adv-x="1012" d="M705 609l-7 -409l-463 8l-1 -381l574 -46l-3 -179l-793 15l10 802l466 -2l1 192h216zM491 804v2l-7 218l227 -22l-3 -198h-217z" />
<glyph unicode="&#xc0;" d="M205 117l-36 -130l-234 11l457 1531l477 -1535l-238 -4l-36 124zM540 307l-144 499l-135 -486zM434 1812l58 -322l-152 -28l-117 364z" />
<glyph unicode="&#xc1;" d="M205 117l-36 -130l-234 11l457 1531l477 -1535l-238 -4l-36 124zM540 307l-144 499l-135 -486zM581 1826l-117 -364l-152 28l58 322z" />
<glyph unicode="&#xc2;" d="M205 117l-36 -130l-234 11l457 1531l477 -1535l-238 -4l-36 124zM540 307l-144 499l-135 -486zM403 1735l-108 -210l-161 -5l160 324l214 -4l163 -305l-184 -5z" />
<glyph unicode="&#xc3;" d="M205 117l-36 -130l-234 11l457 1531l477 -1535l-238 -4l-36 124zM540 307l-144 499l-135 -486zM321 1682l-138 -95l-2 130l135 98l143 -121l144 79l19 -129l-168 -83z" />
<glyph unicode="&#xc4;" d="M205 117l-36 -130l-234 11l457 1531l477 -1535l-238 -4l-36 124zM540 307l-144 499l-135 -486zM352 1821l4 -231l-215 8v237zM659 1812l4 -231l-215 8v237z" />
<glyph unicode="&#xc5;" d="M205 117l-36 -130l-234 11l457 1531l477 -1535l-238 -4l-36 124zM540 307l-144 499l-135 -486zM535 1791q55 -55 55 -133q0 -77 -55 -132t-133 -55t-133 55t-55 132q0 78 55 133t133 55t133 -55zM406 1728q-29 0 -49.5 -20.5t-20.5 -49.5t20.5 -49.5t49.5 -20.5 q30 0 50.5 20.5t20.5 49.5t-20.5 49.5t-50.5 20.5z" />
<glyph unicode="&#xc6;" horiz-adv-x="1607" d="M628 307l-6 499l-269 -486zM632 -10l-2 124l-389 3l-72 -130l-231 11l879 1531l5 -129l715 27l-147 -220l-552 -11l4 -389l473 8l31 -215l-496 -8l14 -396l578 34l-8 -223z" />
<glyph unicode="&#xc7;" d="M606 478l199 -10l-13 -481l-804 11l20 1404l796 -4l-2 -383l-198 -190l-4 369l-392 -7l-4 -989l388 -4zM552 156l36 -425l-361 -27l-23 208l136 13l-14 199z" />
<glyph unicode="&#xc8;" horiz-adv-x="1012" d="M764 1194l-552 -11l3 -389l474 8l31 -215l-501 -8l12 -396l585 34l-8 -223l-793 -15l-23 1400l919 35zM483 1812l58 -322l-152 -28l-117 364z" />
<glyph unicode="&#xc9;" horiz-adv-x="1012" d="M764 1194l-552 -11l3 -389l474 8l31 -215l-501 -8l12 -396l585 34l-8 -223l-793 -15l-23 1400l919 35zM631 1826l-117 -364l-152 28l58 322z" />
<glyph unicode="&#xca;" horiz-adv-x="1012" d="M764 1194l-552 -11l3 -389l474 8l31 -215l-501 -8l12 -396l585 34l-8 -223l-793 -15l-23 1400l919 35zM452 1735l-108 -210l-161 -5l160 324l214 -4l163 -305l-184 -5z" />
<glyph unicode="&#xcb;" horiz-adv-x="1012" d="M764 1194l-552 -11l3 -389l474 8l31 -215l-501 -8l12 -396l585 34l-8 -223l-793 -15l-23 1400l919 35zM402 1821l4 -231l-215 8v237zM709 1812l4 -231l-215 8v237z" />
<glyph unicode="&#xcc;" horiz-adv-x="402" d="M215 1383l-4 -1397l-215 8l4 1421zM137 1812l58 -322l-152 -28l-117 364z" />
<glyph unicode="&#xcd;" horiz-adv-x="402" d="M215 1383l-4 -1397l-215 8l4 1421zM285 1826l-117 -364l-152 28l58 322z" />
<glyph unicode="&#xce;" horiz-adv-x="402" d="M215 1383l-4 -1397l-215 8l4 1421zM106 1735l-108 -210l-161 -5l160 324l214 -4l163 -305l-184 -5z" />
<glyph unicode="&#xcf;" horiz-adv-x="402" d="M215 1383l-4 -1397l-215 8l4 1421zM56 1821l4 -231l-215 8v237zM363 1812l4 -231l-215 8v237z" />
<glyph unicode="&#xd0;" d="M122 859l8 548l728 -9l-134 -1402l-614 7l9 613l-117 -8l5 244zM329 871l125 8l9 -239l-135 -9l-2 -428h198l108 991l-302 -2z" />
<glyph unicode="&#xd1;" horiz-adv-x="996" d="M8 -40v1639l592 -1005l-8 824l193 42l23 -1658l-600 985l-12 -766zM327 1682l-138 -95l-2 130l135 98l143 -121l144 79l19 -129l-168 -83z" />
<glyph unicode="&#xd2;" d="M208 1187l-4 -989l388 -4l8 1000zM804 1398l-12 -1411l-804 11l20 1404zM428 1812l58 -322l-152 -28l-117 364z" />
<glyph unicode="&#xd3;" d="M208 1187l-4 -989l388 -4l8 1000zM804 1398l-12 -1411l-804 11l20 1404zM575 1826l-117 -364l-152 28l58 322z" />
<glyph unicode="&#xd4;" d="M208 1187l-4 -989l388 -4l8 1000zM804 1398l-12 -1411l-804 11l20 1404zM397 1735l-108 -210l-161 -5l160 324l214 -4l163 -305l-184 -5z" />
<glyph unicode="&#xd5;" d="M208 1187l-4 -989l388 -4l8 1000zM804 1398l-12 -1411l-804 11l20 1404zM315 1682l-138 -95l-2 130l135 98l143 -121l144 79l19 -129l-168 -83z" />
<glyph unicode="&#xd6;" d="M208 1187l-4 -989l388 -4l8 1000zM804 1398l-12 -1411l-804 11l20 1404zM346 1821l4 -231l-215 8v237zM653 1812l4 -231l-215 8v237z" />
<glyph unicode="&#xd7;" horiz-adv-x="902" d="M210 681l-191 154l130 172l196 -158l138 170l188 -109l-158 -196l170 -138l-109 -188l-196 158l-154 -191l-172 130z" />
<glyph unicode="&#xd8;" d="M342 539l323 654l-320 -6zM314 -5l-91 -186l-230 8l-5 4l138 281l19 1300l622 -3l94 191l218 -18l-5 -7l5 1l-139 -285l-11 -1294zM734 859l-322 -662l317 -3z" />
<glyph unicode="&#xd9;" d="M603 1394l201 -3l-20 -1404l-796 4l12 1411l210 -3l-18 -1204l392 7zM428 1812l58 -322l-152 -28l-117 364z" />
<glyph unicode="&#xda;" d="M603 1394l201 -3l-20 -1404l-796 4l12 1411l210 -3l-18 -1204l392 7zM575 1826l-117 -364l-152 28l58 322z" />
<glyph unicode="&#xdb;" d="M603 1394l201 -3l-20 -1404l-796 4l12 1411l210 -3l-18 -1204l392 7zM397 1735l-108 -210l-161 -5l160 324l214 -4l163 -305l-184 -5z" />
<glyph unicode="&#xdc;" d="M603 1394l201 -3l-20 -1404l-796 4l12 1411l210 -3l-18 -1204l392 7zM346 1821l4 -231l-215 8v237zM653 1812l4 -231l-215 8v237z" />
<glyph unicode="&#xdd;" d="M273 546l-336 886l225 -7l218 -571l244 568l238 -4l-386 -893l-22 -545h-194zM579 1826l-117 -364l-152 28l58 322z" />
<glyph unicode="&#xde;" d="M224 1211l630 -3l-126 -1004l-518 1v-216l-217 9v1410h231v-197zM224 997l-14 -591l318 5l100 593z" />
<glyph unicode="&#xdf;" horiz-adv-x="1012" d="M604 194l-12 401l-346 -20l267 605l-299 10l12 -1205l-218 -2l-8 1419l867 -24l-286 -561l234 16l-7 -842l-481 -5l-10 209z" />
<glyph unicode="&#xe0;" d="M205 117l-36 -130l-234 11l457 1531l477 -1535l-238 -4l-36 124zM540 307l-144 499l-135 -486zM434 1812l58 -322l-152 -28l-117 364z" />
<glyph unicode="&#xe1;" d="M205 117l-36 -130l-234 11l457 1531l477 -1535l-238 -4l-36 124zM540 307l-144 499l-135 -486zM581 1826l-117 -364l-152 28l58 322z" />
<glyph unicode="&#xe2;" d="M205 117l-36 -130l-234 11l457 1531l477 -1535l-238 -4l-36 124zM540 307l-144 499l-135 -486zM403 1735l-108 -210l-162 -5l161 324l214 -4l163 -305l-184 -5z" />
<glyph unicode="&#xe3;" d="M205 117l-36 -130l-234 11l457 1531l477 -1535l-238 -4l-36 124zM540 307l-144 499l-135 -486zM322 1682l-138 -95l-3 130l135 98l144 -121l144 79l19 -129l-168 -83z" />
<glyph unicode="&#xe4;" d="M205 117l-36 -130l-234 11l457 1531l477 -1535l-238 -4l-36 124zM540 307l-144 499l-135 -486zM352 1821l4 -231l-215 8v237zM659 1812l4 -231l-215 8v237z" />
<glyph unicode="&#xe5;" d="M205 117l-36 -130l-234 11l457 1531l477 -1535l-238 -4l-36 124zM540 307l-144 499l-135 -486zM535 1791q55 -55 55 -133q0 -77 -55 -132t-133 -55t-133 55t-55 132q0 78 55 133t133 55t133 -55zM407 1728q-30 0 -50.5 -20.5t-20.5 -49.5t20.5 -49.5t50.5 -20.5 q29 0 49.5 20.5t20.5 49.5t-20.5 49.5t-49.5 20.5z" />
<glyph unicode="&#xe6;" horiz-adv-x="1607" d="M628 307l-6 499l-269 -486zM632 -10l-2 124l-389 3l-72 -130l-231 11l879 1531l5 -129l715 27l-147 -220l-552 -11l4 -389l473 8l31 -215l-496 -8l14 -396l578 34l-8 -223z" />
<glyph unicode="&#xe7;" d="M606 478l199 -10l-13 -481l-804 11l20 1404l796 -4l-2 -383l-198 -190l-4 369l-392 -7l-4 -989l388 -4zM552 156l36 -425l-361 -27l-23 208l136 13l-14 199z" />
<glyph unicode="&#xe8;" horiz-adv-x="1012" d="M764 1194l-552 -11l3 -389l474 8l31 -215l-501 -8l12 -396l585 34l-8 -223l-793 -15l-23 1400l919 35zM483 1812l58 -322l-152 -28l-117 364z" />
<glyph unicode="&#xe9;" horiz-adv-x="1012" d="M764 1194l-552 -11l3 -389l474 8l31 -215l-501 -8l12 -396l585 34l-8 -223l-793 -15l-23 1400l919 35zM631 1826l-117 -364l-152 28l58 322z" />
<glyph unicode="&#xea;" horiz-adv-x="1012" d="M764 1194l-552 -11l3 -389l474 8l31 -215l-501 -8l12 -396l585 34l-8 -223l-793 -15l-23 1400l919 35zM452 1735l-108 -210l-161 -5l160 324l215 -4l162 -305l-183 -5z" />
<glyph unicode="&#xeb;" horiz-adv-x="1012" d="M764 1194l-552 -11l3 -389l474 8l31 -215l-501 -8l12 -396l585 34l-8 -223l-793 -15l-23 1400l919 35zM402 1821l4 -231l-215 8v237zM709 1812l4 -231l-215 8v237z" />
<glyph unicode="&#xec;" horiz-adv-x="402" d="M285 1383l-4 -1397l-215 8l4 1421zM207 1812l58 -322l-152 -28l-117 364z" />
<glyph unicode="&#xed;" horiz-adv-x="402" d="M215 1383l-4 -1397l-215 8l4 1421zM285 1826l-117 -364l-152 28l58 322z" />
<glyph unicode="&#xee;" horiz-adv-x="402" d="M374 1383l-4 -1397l-215 8l4 1421zM265 1735l-108 -210l-161 -5l160 324l215 -4l162 -305l-183 -5z" />
<glyph unicode="&#xef;" horiz-adv-x="402" d="M366 1383l-4 -1397l-215 8l4 1421zM207 1821l4 -231l-215 8v237zM514 1812l4 -231l-215 8v237z" />
<glyph unicode="&#xf0;" d="M122 859l8 548l728 -9l-134 -1402l-614 7l9 613l-117 -8l5 244zM329 871l125 8l9 -239l-135 -9l-2 -428h198l108 991l-302 -2z" />
<glyph unicode="&#xf1;" horiz-adv-x="996" d="M8 -40v1639l592 -1005l-8 824l193 42l23 -1658l-600 985l-12 -766zM328 1682l-138 -95l-3 130l135 98l144 -121l144 79l19 -129l-168 -83z" />
<glyph unicode="&#xf2;" d="M208 1187l-4 -989l388 -4l8 1000zM804 1398l-12 -1411l-804 11l20 1404zM428 1812l58 -322l-152 -28l-117 364z" />
<glyph unicode="&#xf3;" d="M208 1187l-4 -989l388 -4l8 1000zM804 1398l-12 -1411l-804 11l20 1404zM575 1826l-117 -364l-152 28l58 322z" />
<glyph unicode="&#xf4;" d="M208 1187l-4 -989l388 -4l8 1000zM804 1398l-12 -1411l-804 11l20 1404zM397 1735l-108 -210l-162 -5l161 324l214 -4l163 -305l-184 -5z" />
<glyph unicode="&#xf5;" d="M208 1187l-4 -989l388 -4l8 1000zM804 1398l-12 -1411l-804 11l20 1404zM316 1682l-138 -95l-3 130l135 98l144 -121l144 79l19 -129l-168 -83z" />
<glyph unicode="&#xf6;" d="M208 1187l-4 -989l388 -4l8 1000zM804 1398l-12 -1411l-804 11l20 1404zM346 1821l4 -231l-215 8v237zM653 1812l4 -231l-215 8v237z" />
<glyph unicode="&#xf7;" horiz-adv-x="775" d="M202 1119l220 -2l31 -215l-247 2zM202 495l220 -2l31 -215l-247 2zM-11 798l628 9l-13 -208l-606 -9z" />
<glyph unicode="&#xf8;" d="M342 539l323 654l-320 -6zM314 -5l-91 -186l-230 8l-5 4l138 281l19 1300l622 -3l94 191l218 -18l-5 -7l5 1l-139 -285l-11 -1294zM734 859l-322 -662l317 -3z" />
<glyph unicode="&#xf9;" d="M603 1394l201 -3l-20 -1404l-796 4l12 1411l210 -3l-18 -1204l392 7zM428 1812l58 -322l-152 -28l-117 364z" />
<glyph unicode="&#xfa;" d="M603 1394l201 -3l-20 -1404l-796 4l12 1411l210 -3l-18 -1204l392 7zM575 1826l-117 -364l-152 28l58 322z" />
<glyph unicode="&#xfb;" d="M603 1394l201 -3l-20 -1404l-796 4l12 1411l210 -3l-18 -1204l392 7zM397 1735l-108 -210l-162 -5l161 324l214 -4l163 -305l-184 -5z" />
<glyph unicode="&#xfc;" d="M603 1394l201 -3l-20 -1404l-796 4l12 1411l210 -3l-18 -1204l392 7zM346 1821l4 -231l-215 8v237zM653 1812l4 -231l-215 8v237z" />
<glyph unicode="&#xfd;" d="M273 546l-336 886l225 -7l218 -571l244 568l238 -4l-386 -893l-22 -545h-194zM579 1826l-117 -364l-152 28l58 322z" />
<glyph unicode="&#xfe;" d="M224 1211l630 -3l-126 -1004l-518 1v-216l-217 9v1410h231v-197zM224 997l-14 -591l318 5l100 593z" />
<glyph unicode="&#xff;" d="M273 546l-336 886l225 -7l218 -571l244 568l238 -4l-386 -893l-22 -545h-194zM355 1683l4 -231l-215 8v237zM662 1674l4 -231l-215 8v237z" />
<glyph unicode="&#x131;" horiz-adv-x="402" d="M215 1383l-4 -1397l-215 8l4 1421z" />
<glyph unicode="&#x2c6;" horiz-adv-x="708" d="M259 1325l-108 -210l-161 -5l160 324l214 -4l163 -305l-184 -5z" />
<glyph unicode="&#x2c7;" horiz-adv-x="708" d="M258 1219l108 210l161 5l-160 -324l-215 4l-162 306l183 5z" />
<glyph unicode="&#x2da;" horiz-adv-x="495" d="M332 1381q55 -55 55 -133q0 -77 -55 -132t-133 -55t-133 55t-55 132q0 78 55 133t133 55t133 -55zM203 1318q-29 0 -49.5 -20.5t-20.5 -49.5t20.5 -49.5t49.5 -20.5q30 0 50.5 20.5t20.5 49.5t-20.5 49.5t-50.5 20.5z" />
<glyph unicode="&#x2dc;" horiz-adv-x="608" d="M138 1272l-138 -95l-2 130l135 98l143 -121l144 79l19 -129l-168 -83z" />
<glyph unicode="&#x20ac;" horiz-adv-x="1151" d="M135 358l-142 -1l-14 218l159 3l3 215l-148 -1l-14 218l165 3l6 398l806 -4l11 -161l-199 -190l-18 147l-397 -7l-1 -180l302 5l-8 -223l-295 -3v-214l303 5l-8 -223l-296 -3l-1 -153l393 -4l5 134l201 -10l-4 -331l-814 11z" />
<glyph unicode="&#x2122;" d="M0 911.435l365.41 -3.2002l-5.40039 -80.0049l-133.203 -1.60059l1.7998 -535.232l-98.5527 58.4033l-3.60059 483.229h-122.854zM169.4 963.637l228.605 -349.221l228.606 354.021l-9 -692.843l-93.6025 78.4053l2.25 283.217l-121.503 -186.812l-126.454 189.212 l-12.5996 -286.817l-101.703 9.2002z" />
<glyph unicode="&#x25fc;" horiz-adv-x="1425" d="M0 1425h1425v-1425h-1425v1425z" />
<glyph unicode="&#xf001;" horiz-adv-x="1073" />
<glyph unicode="&#xf002;" horiz-adv-x="1081" />
</font>
</defs>
</svg>
